<?xml version="1.0" encoding="UTF-8"?>
<svg version="1.1" xmlns="http://www.w3.org/2000/svg" width="320" height="320">
<path d="M0 0 C1.9078584 3.1749094 2.1609041 5.10585211 1.625 8.75 C1.51414062 9.54921875 1.40328125 10.3484375 1.2890625 11.171875 C1.19367188 11.77515625 1.09828125 12.3784375 1 13 C7.41564288 13.87486039 11.47449136 11.50103831 17.03515625 8.41015625 C20.07853567 6.96264641 22.66844212 6.3910744 26 6 C26.165 6.680625 26.33 7.36125 26.5 8.0625 C28.38533124 11.75460702 30.88683528 13.66965469 34.02734375 16.30859375 C37.37994373 19.18319927 39.56154466 21.65540362 40.9375 25.875 C41.01983423 29.99171126 40.02114646 32.42930793 38 36 C36.36504293 37.05104383 34.70116376 38.05988318 33 39 C31.9046469 40.79649965 31.9046469 40.79649965 32 43 C32.391875 43.94875 32.78375 44.8975 33.1875 45.875 C34 49 34 49 32.625 51.75 C31.17593801 53.68374824 29.61919321 55.39745804 27.9453125 57.14453125 C23.69749703 61.82317498 21.42077792 65.12101937 21.1875 71.5625 C21.5885458 77.62831768 23.15651387 82.26955553 27 87 C29.26763365 89.24740192 29.26763365 89.24740192 32 90 C34.89160979 89.7269226 34.89160979 89.7269226 38 89 C42.09302374 88.47628633 45.11252071 88.42210651 48.6875 90.75 C52.98615047 96.79134661 57.10531571 104.39834761 56 112 C54.12890625 113.9140625 54.12890625 113.9140625 51.5625 115.625 C36.80542648 126.59874447 31.7938975 142.63394658 27.25 159.625 C26.65486181 161.82417275 26.0570999 164.02258005 25.45574951 166.22006226 C24.91865318 168.1864474 24.3892879 170.15493938 23.86035156 172.12353516 C23 175 23 175 22 176 C18.8617655 176.24966567 15.70950387 176.18521791 12.5625 176.1875 C11.67755859 176.19974609 10.79261719 176.21199219 9.88085938 176.22460938 C9.03458984 176.22654297 8.18832031 176.22847656 7.31640625 176.23046875 C6.53724854 176.23457764 5.75809082 176.23868652 4.95532227 176.24291992 C3 176 3 176 1 174 C0.41333212 172.21281065 -0.09120106 170.39822835 -0.55078125 168.57421875 C-0.8348584 167.47303711 -1.11893555 166.37185547 -1.41162109 165.23730469 C-1.70891113 164.06586914 -2.00620117 162.89443359 -2.3125 161.6875 C-4.46623951 153.40423365 -6.65995604 145.38420786 -10.0546875 137.515625 C-11.1151099 134.69367449 -11.59041521 131.98038292 -12 129 C-10.6078125 128.4121875 -10.6078125 128.4121875 -9.1875 127.8125 C-5.54967285 125.45861184 -5.13908927 122.604552 -4.25 118.5 C-3.94835937 116.81390625 -3.94835937 116.81390625 -3.640625 115.09375 C-3 112 -3 112 -1.921875 109.90625 C-0.76168639 107.50721593 -0.8538636 105.63045522 -1 103 C-1.73605469 102.82984375 -2.47210938 102.6596875 -3.23046875 102.484375 C-13.37482299 99.96503736 -13.37482299 99.96503736 -17 96 C-17.61875 94.4840625 -17.61875 94.4840625 -18.25 92.9375 C-20.54986981 89.07700424 -22.49992921 88.9094292 -26.68359375 87.78125 C-29.0737379 86.97513056 -30.40325231 86.05121303 -32.3125 84.4375 C-36.86126148 80.85885353 -42.4053101 80.61550776 -48 80 C-48.33 80.99 -48.66 81.98 -49 83 C-51.55515853 84.22601777 -54.17758406 84.79596993 -57 85 C-59 83.625 -59 83.625 -60 82 C-59.34 80.02 -58.68 78.04 -58 76 C-59.65 76 -61.3 76 -63 76 C-63.625 73.625 -63.625 73.625 -64 71 C-61.66498746 68.66498746 -59.67609067 68.26818985 -56.54125977 67.45410156 C-42.13808539 63.71170594 -30.52228384 57.68596381 -20 47 C-19.67 46.67 -19.34 46.34 -19 46 C-18.78841034 43.53733145 -18.62382216 41.09227116 -18.5 38.625 C-18.13331486 31.39994457 -18.13331486 31.39994457 -17 28 C-16.34 27.5875 -15.68 27.175 -15 26.75 C-14.34 26.1725 -13.68 25.595 -13 25 C-12.938125 23.948125 -12.87625 22.89625 -12.8125 21.8125 C-11.86852632 17.38308504 -11.04297712 16.90647053 -7.625 14.1875 C-2.59771783 10.11931777 -1.11690482 6.26493738 0 0 Z " fill="#FEFEFE" transform="translate(148,76)"/>
<path d="M0 0 C3.87700837 0.42141395 6.89604976 1.85000093 9.875 4.3125 C10.37 5.364375 10.865 6.41625 11.375 7.5 C11.87 8.428125 12.365 9.35625 12.875 10.3125 C16.39444126 11.13682642 16.39444126 11.13682642 19.875 11.3125 C20.535 11.9725 21.195 12.6325 21.875 13.3125 C21.49150247 17.53097279 20.29509551 21.33623258 18.875 25.3125 C0.32954545 23.76704545 0.32954545 23.76704545 -3.125 20.3125 C-3.22360131 18.90901265 -3.25578937 17.50069523 -3.2578125 16.09375 C-3.25910156 15.24425781 -3.26039062 14.39476562 -3.26171875 13.51953125 C-3.25785156 12.62621094 -3.25398438 11.73289063 -3.25 10.8125 C-3.25386719 9.91917969 -3.25773437 9.02585938 -3.26171875 8.10546875 C-3.26042969 7.25597656 -3.25914063 6.40648437 -3.2578125 5.53125 C-3.25668457 4.74685547 -3.25555664 3.96246094 -3.25439453 3.15429688 C-3.06621393 0.47574136 -2.64706184 0.3892738 0 0 Z " fill="#FEFEFE" transform="translate(74.125,150.6875)"/>
<path d="M0 0 C2 1 2 1 2.86962891 3.52856445 C3.15241699 4.629021 3.43520508 5.72947754 3.7265625 6.86328125 C4.0359375 8.06017578 4.3453125 9.25707031 4.6640625 10.49023438 C4.98117188 11.75158203 5.29828125 13.01292969 5.625 14.3125 C5.94984375 15.56224609 6.2746875 16.81199219 6.609375 18.09960938 C9 27.4561942 9 27.4561942 9 32 C3.39 32 -2.22 32 -8 32 C-7.41260492 24.89251952 -5.93267357 18.35552133 -4 11.5 C-3.72671875 10.4996875 -3.4534375 9.499375 -3.171875 8.46875 C-1.14074248 1.14074248 -1.14074248 1.14074248 0 0 Z " fill="#FEFEFE" transform="translate(160,33)"/>
<path d="M0 0 C6.60132039 0.6149815 12.65462154 2.17639095 19 4.0625 C19.96550781 4.34416016 20.93101562 4.62582031 21.92578125 4.91601562 C24.28550816 5.60524279 26.64345085 6.30000011 29 7 C29 7.99 29 8.98 29 10 C25.03255756 11.02266962 21.06325577 12.03772931 17.09204102 13.0456543 C15.74026518 13.38989939 14.38902391 13.7362505 13.03833008 14.0847168 C11.10117826 14.5840999 9.16194432 15.07538446 7.22265625 15.56640625 C6.05484619 15.86490479 4.88703613 16.16340332 3.68383789 16.47094727 C2.79817139 16.64553467 1.91250488 16.82012207 1 17 C0 16 0 16 -0.09765625 12.40234375 C-0.0909822 10.91403133 -0.07902183 9.42573568 -0.0625 7.9375 C-0.05798828 7.17888672 -0.05347656 6.42027344 -0.04882812 5.63867188 C-0.0370068 3.75908129 -0.01907078 1.87953101 0 0 Z " fill="#FEFEFE" transform="translate(258,152)"/>
<path d="M0 0 C0 5.28 0 10.56 0 16 C-2.99355433 17.49677716 -4.90503507 16.41781776 -8.1015625 15.56640625 C-9.31328125 15.24736328 -10.525 14.92832031 -11.7734375 14.59960938 C-13.04445313 14.25736328 -14.31546875 13.91511719 -15.625 13.5625 C-16.91649455 13.22005336 -18.20815941 12.87824831 -19.5 12.53710938 C-22.66840277 11.69771909 -25.83490238 10.85175297 -29 10 C-29 9.01 -29 8.02 -29 7 C-24.919064 5.82483331 -20.83488859 4.66134593 -16.75 3.5 C-15.59113281 3.16613281 -14.43226562 2.83226562 -13.23828125 2.48828125 C-12.12324219 2.17246094 -11.00820313 1.85664063 -9.859375 1.53125 C-8.83295898 1.23798828 -7.80654297 0.94472656 -6.74902344 0.64257812 C-4 0 -4 0 0 0 Z " fill="#FEFEFE" transform="translate(63,152)"/>
<path d="M0 0 C4.95 0 9.9 0 15 0 C14.14922681 5.95541233 13.00587971 11.55940011 11.5625 17.375 C11.34529297 18.28894531 11.12808594 19.20289063 10.90429688 20.14453125 C10.68966797 21.01207031 10.47503906 21.87960937 10.25390625 22.7734375 C10.06127197 23.56153809 9.8686377 24.34963867 9.67016602 25.16162109 C9 27 9 27 7 28 C4.90364336 22.86392623 3.26990795 17.66306434 1.8125 12.3125 C1.29623047 10.41951172 1.29623047 10.41951172 0.76953125 8.48828125 C0 5 0 5 0 0 Z " fill="#FEFEFE" transform="translate(153,260)"/>
<path d="M0 0 C2.8125 0.1875 2.8125 0.1875 6 1 C7.85233285 3.40803271 9 4.92741925 9 8 C10.9490625 7.7215625 10.9490625 7.7215625 12.9375 7.4375 C15.15234375 7.12109375 15.15234375 7.12109375 17 7 C19.11860891 9.11860891 18.32270498 13.46549507 18.375 16.375 C18.41238281 17.15617187 18.44976562 17.93734375 18.48828125 18.7421875 C18.5221067 20.93708307 18.49183959 22.85953929 18 25 C15.62109375 27.05859375 15.62109375 27.05859375 13 28 C10.6875 27.6875 10.6875 27.6875 9 27 C9.78375 26.13375 10.5675 25.2675 11.375 24.375 C13.83386728 21.44943553 15.02450104 18.72463238 16 15 C15.38511719 15.10699219 14.77023438 15.21398437 14.13671875 15.32421875 C13.32847656 15.44410156 12.52023438 15.56398437 11.6875 15.6875 C10.88699219 15.81511719 10.08648437 15.94273437 9.26171875 16.07421875 C7 16 7 16 5.34375 14.8671875 C3.64246457 12.50319204 2.76800092 10.18685324 1.8125 7.4375 C1.46832031 6.46683594 1.12414062 5.49617187 0.76953125 4.49609375 C0 2 0 2 0 0 Z " fill="#FDFDFD" transform="translate(232,145)"/>
<path d="M0 0 C1.485 0.99 1.485 0.99 3 2 C3 2.66 3 3.32 3 4 C1.68 3.67 0.36 3.34 -1 3 C-0.67 2.01 -0.34 1.02 0 0 Z " fill="#FDFDFD" transform="translate(189,120)"/>
</svg>
